<svg version="1.1" viewBox="0.0 0.0 944.8818897637796 944.8818897637796" fill="none" stroke="none" stroke-linecap="square" stroke-miterlimit="10" xmlns:xlink="http://www.w3.org/1999/xlink" xmlns="http://www.w3.org/2000/svg"><clipPath id="p.0"><path d="m0 0l944.8819 0l0 944.8819l-944.8819 0l0 -944.8819z" clip-rule="nonzero"/></clipPath><g clip-path="url(#p.0)"><path fill="#000000" fill-opacity="0.0" d="m0 0l944.8819 0l0 944.8819l-944.8819 0z" fill-rule="evenodd"/><path fill="#434343" d="m0 472.44095l0 0c0 -260.92194 211.51901 -472.44095 472.44095 -472.44095l0 0c125.2991 0 245.46634 49.774887 334.0662 138.37476c88.59985 88.59985 138.37476 208.76706 138.37476 334.0662l0 0c0 260.9219 -211.51904 472.44095 -472.44095 472.44095l0 0c-260.92194 0 -472.44095 -211.51904 -472.44095 -472.44095z" fill-rule="evenodd"/><defs><radialGradient id="p.1" gradientUnits="userSpaceOnUse" gradientTransform="matrix(25.326016489382464 0.0 0.0 25.326016489382464 0.0 0.0)" spreadMethod="pad" cx="18.6543724742481" cy="18.6543724742481" fx="18.6543724742481" fy="18.6543724742481" r="25.326017379760742"><stop offset="0.0" stop-color="#696969"/><stop offset="1.0" stop-color="#1d1d1d"/></radialGradient></defs><path fill="url(#p.1)" d="m18.897638 472.44095l0 0c0 -250.48506 203.05824 -453.5433 453.5433 -453.5433l0 0c120.28714 0 235.64767 47.78389 320.70352 132.83975c85.05591 85.05586 132.83978 200.41638 132.83978 320.70355l0 0c0 250.48508 -203.05823 453.5433 -453.5433 453.5433l0 0c-250.48506 0 -453.5433 -203.05823 -453.5433 -453.5433z" fill-rule="evenodd"/><path stroke="#efefef" stroke-width="12.0" stroke-linejoin="round" stroke-linecap="butt" d="m18.897638 472.44095l0 0c0 -250.48506 203.05824 -453.5433 453.5433 -453.5433l0 0c120.28714 0 235.64767 47.78389 320.70352 132.83975c85.05591 85.05586 132.83978 200.41638 132.83978 320.70355l0 0c0 250.48508 -203.05823 453.5433 -453.5433 453.5433l0 0c-250.48506 0 -453.5433 -203.05823 -453.5433 -453.5433z" fill-rule="evenodd"/><path fill="#f3f3f3" d="m138.66272 292.6614l0 59.099976l49.80426 0l0 300.48508l73.542755 0l0 -300.48508l49.405273 0l0 -59.099976zm167.03586 103.02759l47.80945 115.815704l-50.203247 140.74176l55.12381 0l23.671997 -70.58765l28.59256 70.58765l67.82422 0l-53.527924 -130.04883l46.61252 -126.50864l-51.067657 0l-22.475067 61.700928l-25.33435 -61.700928z" fill-rule="evenodd"/><path fill="#f3f3f3" d="m498.17618 583.89856l0 68.3479l62.903656 0l0 -68.3479z" fill-rule="evenodd"/><path fill="#f3f3f3" d="m697.12616 345.98145c13.875122 0 23.406006 4.2867737 28.59253 12.860382c5.1865845 8.573578 7.779846 20.542877 7.779846 35.90793c0 10.692902 -1.1747437 19.820404 -3.52417 27.382507c-2.3051758 7.513916 -6.3169556 13.269806 -12.035461 17.267578c-5.718567 3.9978027 -13.7421875 5.996704 -24.070984 5.996704l-20.480225 0l0 -99.4151zm-96.815796 -53.320038l0 359.58505l73.07733 0l0 -161.11609l20.879211 0l36.372375 161.11609l75.5376 0l-45.349182 -173.97647c10.90509 -5.635437 19.283386 -12.667694 25.134888 -21.096802c5.8515015 -8.429108 9.863342 -18.423584 12.035461 -29.98349c2.1721802 -11.5598755 3.2582397 -24.733337 3.2582397 -39.520386c0 -25.142761 -4.565918 -44.57785 -13.697815 -58.305237c-9.087585 -13.775543 -21.81018 -23.336517 -38.167786 -28.682983c-16.313232 -5.3464355 -35.64093 -8.019684 -57.983032 -8.019684z" fill-rule="evenodd"/><path stroke="#f3f3f3" stroke-width="3.0" stroke-linejoin="round" stroke-linecap="butt" d="m138.66272 292.6614l0 59.099976l49.80426 0l0 300.48508l73.542755 0l0 -300.48508l49.405273 0l0 -59.099976zm167.03586 103.02759l47.80945 115.815704l-50.203247 140.74176l55.12381 0l23.671997 -70.58765l28.59256 70.58765l67.82422 0l-53.527924 -130.04883l46.61252 -126.50864l-51.067657 0l-22.475067 61.700928l-25.33435 -61.700928z" fill-rule="evenodd"/><path stroke="#f3f3f3" stroke-width="3.0" stroke-linejoin="round" stroke-linecap="butt" d="m498.17618 583.89856l0 68.3479l62.903656 0l0 -68.3479z" fill-rule="evenodd"/><path stroke="#f3f3f3" stroke-width="3.0" stroke-linejoin="round" stroke-linecap="butt" d="m697.12616 345.98145c13.875122 0 23.406006 4.2867737 28.59253 12.860382c5.1865845 8.573578 7.779846 20.542877 7.779846 35.90793c0 10.692902 -1.1747437 19.820404 -3.52417 27.382507c-2.3051758 7.513916 -6.3169556 13.269806 -12.035461 17.267578c-5.718567 3.9978027 -13.7421875 5.996704 -24.070984 5.996704l-20.480225 0l0 -99.4151zm-96.815796 -53.320038l0 359.58505l73.07733 0l0 -161.11609l20.879211 0l36.372375 161.11609l75.5376 0l-45.349182 -173.97647c10.90509 -5.635437 19.283386 -12.667694 25.134888 -21.096802c5.8515015 -8.429108 9.863342 -18.423584 12.035461 -29.98349c2.1721802 -11.5598755 3.2582397 -24.733337 3.2582397 -39.520386c0 -25.142761 -4.565918 -44.57785 -13.697815 -58.305237c-9.087585 -13.775543 -21.81018 -23.336517 -38.167786 -28.682983c-16.313232 -5.3464355 -35.64093 -8.019684 -57.983032 -8.019684z" fill-rule="evenodd"/></g></svg>